<?xml version="1.0" encoding="utf-8"?>
<svg version="1.1" id="Layer_1" x="0px" y="0px" width="100%" viewBox="0 0 559 557" enable-background="new 0 0 559 557" xmlns="http://www.w3.org/2000/svg">
  <path fill="#010101" opacity="1.000000" stroke="none" d=" M559.776245,28.699989 C560.000000,29.444445 560.000000,29.888889 560.000000,30.666668 C559.119202,32.379890 559.503784,33.922047 559.503601,35.388802 C559.485596,198.298065 559.485840,361.207306 559.486023,524.116577 C559.486023,524.783203 559.501892,525.448914 559.775818,526.556885 C560.000000,527.750000 560.000000,528.500000 560.000000,529.625000 C558.525940,541.118835 552.424255,548.995300 542.963928,554.629456 C539.104553,556.927979 534.934937,557.456787 530.304932,557.775208 C529.555542,558.000000 529.111084,558.000000 528.333313,558.000000 C526.620117,557.119263 525.077942,557.503784 523.611206,557.503601 C361.035583,557.485596 198.459946,557.485840 35.884308,557.486023 C35.217506,557.486023 34.551601,557.501892 33.443314,557.775879 C32.250000,558.000000 31.500000,558.000000 30.375000,558.000000 C22.534800,557.029114 16.030848,554.330933 10.744746,548.627563 C5.040891,542.473511 1.927004,535.674500 1.934355,527.094482 C2.035296,409.287842 2.002736,291.481079 2.002885,173.674362 C2.002945,126.018456 1.985084,78.362534 2.013783,30.706640 C2.022376,16.436699 11.323977,4.753619 25.579273,1.230255 C195.354233,1.000000 364.708466,1.000000 534.531372,1.000000 C549.357849,4.418532 558.616028,14.750401 559.776245,28.699989 z"/>
  <path fill="#5B5B5B" opacity="1.000000" stroke="none" d=" M560.000000,526.531372 C558.177612,525.805054 559.043213,523.959961 559.042786,522.437805 C558.999634,360.099152 559.001526,197.760513 559.013550,35.421871 C559.013672,34.102306 559.185486,32.782757 559.638550,31.231600 C560.000000,196.020889 560.000000,361.041779 560.000000,526.531372 z"/>
  <path fill="#5B5B5B" opacity="1.000000" stroke="none" d=" M33.468658,558.000000 C34.196796,556.176880 36.043438,557.043213 37.567242,557.042786 C199.566956,556.999695 361.566681,557.001892 523.566406,557.014099 C524.888977,557.014221 526.211609,557.188049 527.767090,557.640381 C363.312439,558.000000 198.624878,558.000000 33.468658,558.000000 z"/>
  <path fill="#FAFAFA" opacity="1.000000" stroke="none" d=" M343.540558,221.556488 C361.681580,207.920883 381.904236,202.275772 404.082672,202.688690 C433.866119,203.243225 457.964844,215.452133 477.310760,237.748001 C478.210236,238.784637 478.934082,240.939133 480.450928,240.440948 C482.410675,239.797318 481.499237,237.560104 481.500519,236.025894 C481.534241,195.213242 481.598633,154.400162 481.398987,113.588409 C481.375275,108.740311 482.691284,107.381157 487.517731,107.584770 C497.675385,108.013268 497.686646,107.742706 497.686646,117.809059 C497.686615,208.263412 497.652161,298.717834 497.792694,389.171967 C497.799408,393.508087 496.490356,394.378082 492.478699,394.292023 C481.511322,394.056824 481.502686,394.235901 481.509399,383.277740 C481.513275,376.947723 481.571014,370.617401 481.518982,364.287903 C481.509064,363.079865 482.141876,361.330841 480.386810,360.894073 C479.024109,360.554932 478.622559,362.190460 477.937592,363.013794 C465.757324,377.653717 451.179413,389.051544 432.717377,394.374207 C394.260101,405.461487 360.240631,397.965485 331.240387,369.512726 C293.798279,332.777466 293.699921,267.566833 333.037781,230.527954 C336.306793,227.449966 339.430450,224.203659 343.540558,221.556488 z"/>
  <path fill="#FAFAFA" opacity="1.000000" stroke="none" d=" M244.245682,249.709503 C270.868011,292.605621 259.084778,350.311615 218.725311,380.221985 C179.369736,409.388397 117.435814,406.630096 81.562019,360.400330 C79.717514,361.754639 80.436668,363.679108 80.437706,365.414703 C80.442688,373.743591 80.405273,382.073364 80.525108,390.400818 C80.563560,393.073029 79.772163,394.134003 76.884712,394.263000 C64.225090,394.828461 64.229401,394.923889 64.229340,382.268799 C64.228912,292.312378 64.264053,202.355911 64.116562,112.399734 C64.109619,108.167915 65.378952,107.509209 69.184113,107.610428 C80.486938,107.911110 80.499069,107.744179 80.490021,119.263870 C80.459122,158.577148 80.423637,197.890427 80.381905,237.203705 C80.380524,238.510193 80.137924,239.852982 81.625824,241.313019 C106.478836,210.397949 138.876709,197.960236 177.770767,204.095337 C206.694565,208.657730 228.276443,225.054398 244.245682,249.709503 z"/>
  <path fill="#010101" opacity="1.000000" stroke="none" d=" M357.758667,369.319702 C338.830200,356.160217 325.957916,339.361053 321.823151,316.522736 C315.572327,281.996521 330.036255,249.489319 360.059143,231.050369 C396.208130,208.848999 444.985321,219.744675 468.672241,254.999359 C477.484711,268.115509 481.622192,282.007996 481.830383,297.997498 C482.066071,316.098907 478.666046,332.330719 468.370209,347.461365 C451.003387,372.983490 417.273987,386.920654 387.152100,380.643005 C376.768066,378.478851 366.921051,375.424896 357.758667,369.319702 z"/>
  <path fill="#010101" opacity="1.000000" stroke="none" d=" M232.172394,262.945618 C253.886429,306.145081 236.499023,356.874756 192.480026,375.473267 C160.172302,389.123688 124.480484,382.691162 99.930489,355.246399 C91.146812,345.427002 84.603592,334.410767 81.419762,321.532928 C81.260544,320.888947 80.954124,320.249298 80.945999,319.604767 C80.766319,305.351257 78.647636,290.981903 82.331726,276.914062 C89.481445,249.612610 118.065323,224.659576 145.936844,220.846359 C183.940277,215.646973 212.360046,230.060257 232.172394,262.945618 z"/>
</svg>