<svg width="258.131" height="304.92" viewBox="0 0 100 118.126" fill="currentColor" class="looka-1j8o68f"><path style="text-indent:0;text-transform:none;direction:ltr;block-progression:tb;baseline-shift:baseline;color:#000;enable-background:accumulate" d="m53.594 977.565-13 48 5.812 1.594 13-48-5.812-1.594zm-20.469 3.438-24 19-2.969 2.375 2.969 2.344 24 19 3.75-4.72-21.031-16.624 21.031-16.656-3.75-4.72zm33.75 0-3.75 4.719 21.031 16.656-21.031 16.625 3.75 4.719 24-19 2.969-2.344-2.969-2.375-24-19z" overflow="visible" transform="matrix(.45616 0 0 .45616 27.192 -445.93)" xmlns="http://www.w3.org/2000/svg" fill="#111"/><path d="M0 102.155V43h11.58v20.579q1.8-2.347 5.204-3.873t7.864-1.526q6.65 0 11.541 2.973t7.473 8.099 2.582 11.385-2.582 11.385-7.473 8.099-11.541 2.973q-4.304 0-7.942-1.604T11.58 97.85v4.304H0zm14.28-12.637q3.17 3.247 8.646 3.247 5.321 0 8.569-3.443t3.247-8.685q0-5.4-3.17-8.803t-8.646-3.404q-5.399 0-8.607 3.404t-3.208 8.803q0 5.634 3.17 8.881zm74.14 8.333q-1.487 2.035-5.126 3.639t-7.942 1.604q-6.65 0-11.541-2.973t-7.473-8.1-2.582-11.384 2.582-11.385 7.473-8.099 11.541-2.973q4.46 0 7.864 1.526t5.203 3.873V43H100v59.155H88.42V97.85zm-2.74-26.017q-3.207-3.404-8.606-3.404-5.478 0-8.647 3.404t-3.169 8.803q0 5.242 3.247 8.685t8.569 3.443q5.477 0 8.646-3.247t3.169-8.881q0-5.4-3.208-8.803zM14.923 118.034h-.938v-3.294l-1.555 2.621-1.492-2.646v3.319H10v-4.935h1.08l1.369 2.449 1.431-2.45h1.043v4.936zm9.486-2.468q0 .53-.207 1t-.565.814-.832.546-1.012.2-1.015-.2-.836-.546-.564-.811-.207-1.003.207-1.005.564-.815.836-.542 1.015-.198 1.012.198.832.545.565.815.207 1.002zm-.963 0q0-.34-.13-.638t-.354-.525-.527-.357-.642-.133q-.345 0-.648.133t-.527.357-.355.525-.13.638q0 .333.13.635t.355.528.527.358.648.132q.34 0 .642-.132t.527-.358.355-.528.13-.635zm9.184-2.467-1.87 4.935h-.875l-1.912-4.935h1.06l1.284 3.466 1.264-3.466h1.049zm4.99 4.935h-.957v-4.93h.956v4.93zm7.69 0h-3.257v-4.93h3.257v.79h-2.32v1.179h2.29v.77h-2.29v1.358h2.32v.833zm13.155-3.276q0 .352-.133.657t-.36.53-.537.352-.654.127h-.814v1.61h-.956v-4.93h1.77q.346 0 .654.127t.537.349.36.524.133.654zm-.95-.012q0-.192-.07-.358t-.195-.29-.29-.197-.358-.074h-.635v1.862h.635q.191 0 .358-.077t.29-.206.194-.3.071-.36zm9.295 3.288H65.76l-.456-.987H62.91l-.462.987H61.4l2.332-4.935h.746zm-1.881-1.783-.82-1.777-.834 1.777h1.654zm10.022.876q-.21.259-.456.447t-.515.311-.55.182-.558.06q-.549 0-1.03-.198t-.839-.543-.567-.814-.21-1.012q0-.53.207-.996t.567-.811.842-.546 1.03-.2q.636 0 1.157.258t.885.691l-.648.66q-.277-.376-.623-.54t-.77-.163q-.352 0-.66.13t-.54.354-.364.525-.133.638q0 .345.133.645t.364.527.54.358.66.13q.332 0 .629-.124t.53-.327v-.475H73.02v-.814h1.931v1.647zm7.506.907H79.2v-4.93h3.257v.79h-2.32v1.179h2.29v.77h-2.29v1.358h2.32v.833zM90 116.738q0 .278-.12.528t-.336.44-.512.306-.654.114q-.321 0-.577-.037t-.481-.117-.432-.207-.429-.305l.679-.685q.296.247.58.349t.616.101q.136 0 .256-.04t.21-.108.142-.16.053-.204q0-.117-.044-.21t-.154-.178-.308-.176-.506-.2q-.272-.1-.521-.226t-.438-.305-.303-.42-.114-.567q0-.314.127-.58t.345-.453.512-.293.632-.105q.568 0 .957.148t.69.432l-.666.672q-.185-.179-.413-.274t-.537-.096q-.142 0-.262.043t-.207.114-.138.167-.053.2q0 .118.05.213t.166.185.312.18.484.193q.37.13.635.284t.432.34.247.416.08.521z" fill="#111"/></svg>